<?xml version="1.0" encoding="utf-8"?>
<!-- Generator: Adobe Illustrator 23.0.0, SVG Export Plug-In . SVG Version: 6.00 Build 0)  -->
<svg version="1.1" xmlns="http://www.w3.org/2000/svg" xmlns:xlink="http://www.w3.org/1999/xlink" x="0px" y="0px"
	 viewBox="0 0 225 274.2" style="enable-background:new 0 0 225 274.2;" xml:space="preserve">
<style type="text/css">
	.st0{display:none;}
	.st1{display:inline;}
	.st2{fill:#81BA21;}
	.st3{fill:#F2BE52;}
	.st4{fill:#F39F34;}
	.st5{fill:#FFFFFF;}
	.st6{fill:#2C404F;}
	.st7{fill:#98A0AB;}
	.st8{fill:#67AB28;}
	.st9{fill:#568E21;}
	.st10{fill:#76B324;}
	.st11{fill:#91CA56;}
	.st12{fill:#5EAD2F;}
	.st13{fill:none;}
	.st14{fill:#6CB82F;}
	.st15{fill:#4E9125;}
	.st16{fill:#57575D;}
	.st17{fill:#643333;}
	.st18{fill:#6B983A;}
	.st19{fill:#9BCE57;}
	.st20{fill:#120931;}
	.st21{fill:#F1BA14;}
	.st22{fill:#2074AA;}
	.st23{fill:#F8F9F4;}
	.st24{fill:#1B2018;}
	.st25{fill:#252220;}
	.st26{fill:#161313;}
	.st27{fill:#4D7AB3;}
	.st28{fill:#89B6D1;}
	.st29{fill:#36414E;}
	.st30{fill:#21232B;}
	.st31{fill:#F29272;}
	.st32{fill:#F1BA7F;}
	.st33{fill:#EC5B6C;}
</style>
<g id="Layer_6" class="st0">
	<g class="st1">
		<path class="st2" d="M224.6-33.8c0,0-11,20.3-1.6,33.8c0,0-28.5,34.1,18.4,63.4l-8.6,31.1c0,0-23.6-5.3-21,15.8
			c0,0-0.8,7.1,12.4,18.7l42.8,46.9v3.4l-37.5-7.5c0,0-18.4-5.3-22.5,4.9l-15,15h234l-18.8-18.4c0,0,1.1-5.3-18.4-1.9l-38.3,7.1
			l55.1-62.6c0,0,6-27-21-22.1l-9.8-30c0,0,29.6-13.9,28.5-42.8c0,0-2.6-18-8.3-19.9c0,0,7.9-28.1-6-40.5c0,0-20.3-24.8-50.3-6
			c0,0-8.3,5.6-13.1,16.9l-34.9-0.4c0,0-8.5-30-47.8-20.6C243.1-49.5,228.4-43.7,224.6-33.8z"/>
		<ellipse class="st3" cx="276.4" cy="-75" rx="6.2" ry="7.5"/>
		<circle class="st3" cx="308.5" cy="-75" r="7.5"/>
		<circle class="st3" cx="341.1" cy="-73.9" r="6.4"/>
		<path class="st4" d="M279.2-44.7v-22.8l15,22.8h3.4l7.9-22.8h6.4l9.4,24.4l17.6-24.4v22.1c0,0-12.4,10.9-13.1,16.9l-34.9-0.4
			C290.9-28.8,286.2-40.8,279.2-44.7z"/>
		<circle class="st5" cx="256.7" cy="-15.7" r="23.6"/>
		<ellipse class="st5" cx="360.4" cy="-14.6" rx="25.7" ry="22.5"/>
		<ellipse class="st6" cx="257.1" cy="-15.2" rx="15.4" ry="13.3"/>
		<circle class="st6" cx="360.8" cy="-15.2" r="13.3"/>
		<circle class="st7" cx="259" cy="-18.7" r="7.1"/>
		<circle class="st7" cx="362.3" cy="-19.3" r="7.7"/>
		<path class="st8" d="M214.4,26c0,0,91.4,47.7,187,0c0,0,5.3,15.3-26.6,37.8c0,0-59.9,32.6-131.8,0C243.1,63.8,219.4,50.8,214.4,26
			z"/>
		<path class="st9" d="M241.7,103.2l66.4,42.4l66-40.9l-42.4,66c0,0-6,4.9-22.7-7.5c0,0-8.1,11.6-21.6,8.4L241.7,103.2z"/>
		<path class="st10" d="M297.6,80.3c0,0-23.5,9.3-35.9,35.6l-19.9-12.7l-9-8.6l8.6-31.1C241.4,63.4,274,78.4,297.6,80.3z"/>
		<path class="st5" d="M303.6,190.5c0,0-4.1-10.5-13.9-11.3l-3-6.8h8.4l11.4-7.5h4.9l7.9,6l11.3,1.1l-2.3,5.6l-6.8,2.3l-7.5,10.5
			H303.6z"/>
	</g>
</g>
<g id="Layer_2" class="st0">
	<g class="st1">
		<path class="st11" d="M-22.9,366l2.6,23.3c0,0-4,1-9.3,3.8c-13.8,7.2-36.9,26.1-25.6,69.3c0,0,7.9,21.4,26.3,32.3h-10.3
			c0,0-3.2-9-12.2,0c0,0-5.6,11.6,16.5,9.4l42.4,0.3l-10.1,7.2l0.8,2.3h12v8.3v2.3l12.4-4.5l1.9,4.5l3.8,1.9l2.6-6.4l8.6-11.6l-3-3
			l34.9-0.8v3l8.6,18.8h2.6l2.3-6.8l11.6,4.5l1.9-2.6c0,0-0.4-6.8,0-6.8s13.5-0.4,13.5-0.4v-2.3l-11.6-7.5l55.1-0.4
			c0,0,8.3-7.9,0-12.8c0,0-6.1-1.9-9.1,3.8h-10.4c0,0,34.1-19.1,30.7-59.1c0,0-3.7-39.1-38-45.8l2.8-42.5c0,0-8.4-34.9-46.4-18.3
			c0,0-12.7,11.8-10.1,21.7L33,351.3c0,0-5.3-38.8-43.9-22.8C-10.8,328.5-28.6,337.4-22.9,366z"/>
		<path class="st12" d="M-29.1,394.6l2.8,29.3l5.6,26.4l8.2,28.7l6.8,16.9l3.7,8.4l9.6,0.1c0,0-24.6-44.2-27.8-115l-9.3,3.8
			L-29.1,394.6z"/>
		<path class="st12" d="M138,393.1c0,0-12,93.1-25.9,107.2l4.5,3.9l-16.5,0.1c0,0,31.1-67.3,28.3-114.3L138,393.1z"/>
		<path class="st13" d="M145.5,423c0,0,5.3,13.2,2.8,30.1c0,0,7.3,5.9,6.5-6.3c0,0,2.8-19.8-3.1-26.3
			C151.7,420.5,145.2,411.8,145.5,423z"/>
		<path class="st12" d="M140.5,468.3c0,0-8.2,17.2,5.1,4.5C145.5,472.8,152.6,457.6,140.5,468.3z"/>
		<path class="st14" d="M2.7,390.1l102.7,1.4v-3.4l2.5-2.3h3.4l1.7,3.4l-2.5,5.9l-5.3,3.4H2.7c0,0-5.3-3.7-6.2-6.3v-4.4
			C-3.5,387.9-2.1,381.7,2.7,390.1z"/>
		<path class="st15" d="M38.1,504.3c0,0-16.6-42.5-10.4-70c0,0,2.8-21.7,24.7-23.6c0,0,27.8-7.6,29.3,38.3c0,0-1.6,31.4-10.5,55.5
			L38.1,504.3z"/>
		<circle class="st14" cx="5.1" cy="354" r="21.2"/>
		<circle class="st12" cx="5.5" cy="353.3" r="16.6"/>
		<ellipse class="st14" cx="102.6" cy="355.1" rx="21" ry="20.1"/>
		<ellipse class="st12" cx="102.5" cy="354.1" rx="16.6" ry="15.8"/>
		<path class="st16" d="M-3.5,351c0,0-10.1,4.8,0,6.5h17.2c0,0,8.4-2,0-6.5H-3.5z"/>
		<path class="st16" d="M94.9,351c0,0-10.4,3.9,0,6.5h18c0,0,5.9-5.1,0-6.5H94.9z"/>
	</g>
</g>
<g id="Layer_3">
	<g>
		<g>
			<path class="st17" d="M57.7,107.8c0,0-38.8,19.7-9.9,64.3l1.5,9.8c0,0-37.7-31.5-49.2-8.3c0,0-2.5,32.6,33.8,57.4l9.4,7.1h-6.8
				c0,0-11.3,7.9,0,10.5H74l-5.6,5.3l5.6,5.3l4.9-2.3v4.1h8.6v-3.8L92,261l5.6-7.5L92,249c0,0,7.5-9.4,5.6-12.4c0,0,12,6,29.3,0.4
				c0,0,2.3,9,6,10.9l-5.3,5.6l5.3,5.6l4.5-1.9v3.8h8.6v-3.8l4.9,3.8l6-7.1l-6-5.6l37.5,0.4c0,0,13.5-4.1,0-9.4l-7.9-0.4
				c0,0,44.5-31.9,44.5-58.9s0-1.7,0-1.7s0.8-20.8-22.8-11.8l-25.5,15l1.1-11.6c0,0,20.6-24.4,2.6-49.9c0,0-1.5-6-13.1-12.2
				c0,0,0-28.7-28.1-25.7c0,0-17.3,1.9-20.3,18.4l-12.8,0.4c0,0-9.4-31.9-39-13.9C67.2,87,59,90.7,57.7,107.8z"/>
			<path class="st18" d="M11.4,186.7c0,0,24.4,45.4,56.3,52.1v-17.3c0,0-12.4-16.5-13.1-24c0,0-24.8-21-33.8-21.4
				C20.7,176.2,5.7,166.5,11.4,186.7z"/>
			<path class="st18" d="M47.4,143.2h130.5c0,0-2.3-23.3-20.6-31.1c0,0,2.6-24-18.8-20.3c0,0-10.1,0.4-12.8,18l-24.4,0.4l-4.5-3.4
				c0,0,0-17-17.6-15.4c0,0-13.1,2.3-11.6,20.6C67.6,112.1,44.7,125.6,47.4,143.2z"/>
			<path class="st17" d="M77.4,101.6c0,0-10.5,10.5,10.9,7.1C88.2,108.7,98.4,100.8,77.4,101.6z"/>
			<path class="st17" d="M137.4,101.5c0,0-12.9,8.1,9.8,7.8C147.1,109.4,158.7,100.4,137.4,101.5z"/>
			<path class="st19" d="M48.9,152.6c0,0,4.5,23.6,37.1,23.6h64.3c0,0,19.3-4.5,26.1-23.6H48.9z"/>
			<path class="st18" d="M171.9,196.8c0,0-7.5,19.1-15,22.5v19.5c0,0,37.9-11.6,55.5-50.3c0,0,10.9-22.9-10.9-12.4L176.4,192
				L171.9,196.8z"/>
			<path class="st18" d="M59.4,180.7c0,0,2.6,24.4,18.4,34.9v16.5c0,0,4.5,21.4,10.1,0v-9.4c0,0,6.8-9.3,8.3,3.8l10.1,3.4l21.8-2.3
				c0,0,5.3-16.5,8.3,0.4v7.5c0,0,7.5,13.9,11.6-0.8v-19.1c0,0,15.4-11.3,18.4-34.9l-9.4,3.8l-82.1,0.8L59.4,180.7z"/>
			<ellipse class="st17" cx="67.2" cy="261.1" rx="7.9" ry="6.6"/>
			<circle class="st17" cx="83.7" cy="268.1" r="6.9"/>
			<ellipse class="st17" cx="98.8" cy="260.4" rx="8.2" ry="7.7"/>
			<circle class="st17" cx="126" cy="260.4" r="7.7"/>
			<circle class="st17" cx="143.2" cy="268" r="7"/>
			<circle class="st17" cx="157.6" cy="261.4" r="6.8"/>
		</g>
		<g>
			<path d="M48.6,88.4c0,0,49.9,29.3,127.9,0c0,0,16.9-6.8,3.4-21c0,0-10.5-9.4-10.9-2.6c0,0,4.5,13.6-52.1,17.1
				c0,0-55.1,3.1-60.7-19.5c0,0-13.7-1.7-16.2,16.7C39.9,79,43.8,88.8,48.6,88.4z"/>
			<path d="M82.4,14.2L67,48.7c0,0-10.1,11.6,4.5,16.9c0,0,37.5,17.6,81,0c0,0,15-1.6,7.5-14.9c0,0,12.8-8,13.5-25.3v-9l-5.6,7.1
				l-1.5-4.5c0,0-13.5,11.6-13.9,21.4L151,62.3c0,0-7.1-17-2.6-35l-8.3-20.6c0,0-3.4-10.9-15-1.9c0,0-9,12.8-22.5,2.3
				C102.6,7,89.9-12.8,82.4,14.2z"/>
		</g>
	</g>
</g>
<g id="Layer_1" class="st0">
	<g class="st1">
		<path class="st20" d="M72.9,128.1l29.1-0.8l11.1-21.9c0,0,1.1,17.3,1.8,16.9s14.8-8.3,14.8-8.3L131,131l14.5-9.1l1.3,16.2l15.6-9
			l-11.1,23.6c0,0,10.8,13.1,9.1,15.5s0.7,0,0.7,0l9.4,1.1c0,0,28.5,8.1,20.3,33l-3.2,6.5c0,0-33.9-14.2-29.1,25.9
			c0,0,5.6,1.8,6,1.8s7.7,0,7.7,0s-3.4,14.6-21.8,12.1l-7.9-2.7c0,0-12.5,19.3-63.1,17.9c0,0-22.8,26.7-17.4-4.8l-12.7-6.2
			c0,0-41.1,35.7-16-8.7c0,0-20.8-29.8-18.8-46.7c0,0-27,16.6-30.7,30.4c0,0-7.3,0-2-20.8c0,0,6.8-13.2,31.8-15.2
			c0,0-19.1-14.1-33.7-4.5l-2.8,2.6c0,0-0.8-4.9,7.3-11.6c0,0,16-17.4,31.5,1.7l3.1-8.7c0,0-9.3-13.2,1.4-25.9
			c0,0-10.4-17.2,10.1-34.9c0,0,2.8,16,18,26.7h4.1c0,0-5.2-16.9,9.7-26.4C62.2,110.7,69.5,126.1,72.9,128.1z"/>
		<path class="st21" d="M110.6,118.5l-5.9,11.3c0,0,19.7,26.2,40.8,22.5l9-13.5l-10.4,5.3l-1.1-16l-13.4,7.5l-3-17.1l-13.8,10.4
			L110.6,118.5z"/>
		<path class="st5" d="M28.2,117.1c0,0-25.9,22.8,27,57.9l-20.5-13.5l-9.6-8.9l-3.2-3.7c0,0-8.6,11.8,1.5,21.1l16.3,11.3l22.8,6.8
			L29,177.9c0,0-7.9-8.7-5.1,4.2c0,0,5.3,22.5,39.7,19l15.5-1.8l4.1-2c0,0,3.5-15.2-3.5-23.3l-9.8-12.7l-14.1-12.1l-17.4-16.9
			c0,0-9-8.4-8.4-15.2H28.2z"/>
		<path class="st5" d="M61.4,117.1c0,0-7,1.5-6.5,18.5l14.6-5.8L61.4,117.1z"/>
		<path class="st22" d="M90.1,131.2c0,0-24.2-0.8-37.5,9.6c0,0,44.6,34.3,34.4,57.9c0,0-19.1,11.8-53.2,0c0,0-16-12.4-13.2-20.5
			l-2.8,8.2c0,0-2,49.8,36.1,64.7c0,0,32.8,25.9,85.4-6.5l-6.8-5.9l-1.7-20.5l3.7-17l4.8-17.9l9.8-14.1l6.8-2.3l-8.2-11.5
			c0,0-32.9,4.2-47-24.2L90.1,131.2z"/>
		<path class="st23" d="M40.3,240.9c0,0,52.3-20.8,92.7,7.3C132.9,248.2,87.8,280.2,40.3,240.9z"/>
		<path class="st21" d="M152.8,171.7c0,0-24.2,28.1-16.6,65.3l13.5,8.2h11.8l5.1-5.6l-20-6c0,0-9.8-9.2,9.3-25.1
			c0,0,14.9-9.1,29.3-3.2c0,0,10.8-14.7-4.5-25.6C180.6,179.6,173.6,169.7,152.8,171.7z"/>
		<path class="st24" d="M155.9,177.9l5.9,3.9c0,0,13.2,0.8,3.1-3.9H155.9z"/>
		<circle class="st25" cx="116.5" cy="174.3" r="21.7"/>
		<circle class="st5" cx="116.1" cy="175.8" r="17.9"/>
		<path class="st26" d="M116.1,173.1c0,0,0.7,16.7,13.4,8.8c0,0,7.7-8.2,0-13.8l-5-1.4C124.6,166.6,130.4,181.2,116.1,173.1z"/>
	</g>
</g>
<g id="Layer_4" class="st0">
	<g class="st1">
		<path class="st27" d="M81,137.2c0,0-97.9,79.3-111.4,83.8h19.7l-19.7,11.3h44.4l-5.1,18l36-7.9c0,0,73.7,30.4,112.5-22.5
			c0,0,16.9-15.2,12.9-63.6c0,0-7.3-12.4-2.3-19.1h15.2c0,0-7.3-15.7-11.3-15.7c0,0-1.7-30.9-34.3-35.4c0,0-30.9-2.8-42.2,37.7
			L81,137.2z"/>
		<path class="st28" d="M97.3,131l-20.8,19.7c0,0,36.6-7.9,48.9,27.6c0,0,10.5,37.8-41.1,52.3l-31.5,7.9c0,0,31.5,23.6,78.2,0
			c0,0,43.3-25.9,33.8-77.6l-3.9-16.9l5.3-24.2c0,0-9.3-44.4-51.4-20.8c0,0-9,7.9-8.4,12.4L97.3,131z"/>
		<path class="st28" d="M63,161.9c0,0-46.1,73.2-46.1,79.9l59.6-14.1c0,0,32.9-12.9,33-15.2c0,0,31.7-31.5-6.6-54.6
			C103,158,87.8,145.1,63,161.9z"/>
		<polygon class="st28" points="52.9,168.5 -11.8,215.4 10.7,215.4 -7.8,227.8 16.9,227.8 		"/>
		<path class="st29" d="M82.7,248.9v11.3c0,0-12.9,16.9,2.8,6.8l9.6,3.2l3.4-2.7l-11.6-6l1.3-12.6H82.7z"/>
		<path class="st29" d="M109.6,246v15.7l-5.3,3.9l0.6,3.2l3,1.3l5.3-5.4l8.8,4.9c0,0,8.7,1.1,3-5.1l-9.4-4.9V244L109.6,246z"/>
		<path class="st29" d="M159.5,136.5h22.9c0,0-2.7-11.2-12.8-14.9c0,0-6.5-4.9-9.1,3C160.5,124.5,148.7,131.6,159.5,136.5z"/>
		<circle class="st29" cx="134.2" cy="117.6" r="7.4"/>
	</g>
</g>
<g id="Layer_5" class="st0">
	<g class="st1">
		<path class="st30" d="M46,153.3l-5.6,10.7l-5,13.5l-9.6,7.6c0,0-18.3,9.8-34,47.5l-18.3,34c0,0-1.4,2.5,0,2.5s56.5,0,56.5,0
			l2.8,9.6c0,0-8.7,7.5,1.7,5.3c0,0,13.2-3.7,19.3,0.4c0,0,7.5-0.5,1.1-4c0,0-7.4-2.8-17.7-1.5l-3-10.5l12.5-0.6l0.1,4.2
			c0,0-6.9,4.6,1,3.7c0,0,9.7-2.8,19.7,0.3c0,0,7.5,1,2.4-3.2c0,0-3.9-2.3-19.4-1.8l-0.4-3.2c0,0,55.3-14.2,46.3-69.3l-4.2-11
			c0,0,11.5-21.4-1.1-34C91,153.3,71.9,129.9,46,153.3z"/>
		<path class="st31" d="M35.1,182.5c0,0,35.7-1.4,29.2,34.3c0,0-2.5,20.3-45.6,28.1l-32.1,7l-7.3,12.1h65.5c0,0,45.4-5.3,48.7-51.6
			c0,0,1.4-15.6-4.5-24.1c0,0,9-22.8,0.3-30.1c0,0-12.9-21.7-38.5-4.8l-5.6,8.2l-2,7L35.1,182.5z"/>
		<path class="st30" d="M89.1,174.9c0,0-8.7,5.7,1.7,8.3h13.5c0,0-2.5-10-9.3-11.7C95,171.5,89.4,167.2,89.1,174.9z"/>
		<path class="st32" d="M14.2,199.4c0,0,25.8-0.3,41.2,30.6c0,0,17.2-23.7,0-38.2C55.4,191.8,34.4,171.5,14.2,199.4z"/>
		<path class="st33" d="M12.6,201.3L-5.7,232l-7.9,16.8l36.8-6.6L53.9,230C53.9,230,41.2,201.3,12.6,201.3z"/>
		<circle class="st30" cx="73.6" cy="165.1" r="6.8"/>
	</g>
</g>
</svg>
