<?xml version="1.0" encoding="utf-8"?>
<!-- Generator: Adobe Illustrator 23.0.0, SVG Export Plug-In . SVG Version: 6.00 Build 0)  -->
<svg version="1.1" xmlns="http://www.w3.org/2000/svg" xmlns:xlink="http://www.w3.org/1999/xlink" x="0px" y="0px"
	 viewBox="0 0 225 201.5" style="enable-background:new 0 0 225 201.5;" xml:space="preserve">
<style type="text/css">
	.st0{display:none;}
	.st1{display:inline;}
	.st2{fill:#81BA21;}
	.st3{fill:#F2BE52;}
	.st4{fill:#F39F34;}
	.st5{fill:#FFFFFF;}
	.st6{fill:#2C404F;}
	.st7{fill:#98A0AB;}
	.st8{fill:#67AB28;}
	.st9{fill:#568E21;}
	.st10{fill:#76B324;}
	.st11{fill:#91CA56;}
	.st12{fill:#5EAD2F;}
	.st13{fill:none;}
	.st14{fill:#6CB82F;}
	.st15{fill:#4E9125;}
	.st16{fill:#57575D;}
	.st17{fill:#643333;}
	.st18{fill:#6B983A;}
	.st19{fill:#9BCE57;}
	.st20{fill:#120931;}
	.st21{fill:#F1BA14;}
	.st22{fill:#2074AA;}
	.st23{fill:#F8F9F4;}
	.st24{fill:#1B2018;}
	.st25{fill:#252220;}
	.st26{fill:#161313;}
	.st27{fill:#4D7AB3;}
	.st28{fill:#89B6D1;}
	.st29{fill:#36414E;}
	.st30{fill:#21232B;}
	.st31{fill:#F29272;}
	.st32{fill:#F1BA7F;}
	.st33{fill:#EC5B6C;}
</style>
<g id="Layer_6" class="st0">
	<g class="st1">
		<path class="st2" d="M224.6-106.5c0,0-11,20.3-1.6,33.8c0,0-28.5,34.1,18.4,63.4l-8.6,31.1c0,0-23.6-5.3-21,15.8
			c0,0-0.8,7.1,12.4,18.8l42.8,46.9v3.4l-37.5-7.5c0,0-18.4-5.3-22.5,4.9l-15,15h234l-18.8-18.4c0,0,1.1-5.3-18.4-1.9l-38.3,7.1
			l55.1-62.6c0,0,6-27-21-22.1l-9.8-30c0,0,29.6-13.9,28.5-42.8c0,0-2.6-18-8.3-19.9c0,0,7.9-28.1-6-40.5c0,0-20.3-24.7-50.3-6
			c0,0-8.3,5.6-13.1,16.9l-34.9-0.4c0,0-8.5-30-47.8-20.6C243.1-122.2,228.4-116.5,224.6-106.5z"/>
		<ellipse class="st3" cx="276.4" cy="-147.7" rx="6.2" ry="7.5"/>
		<circle class="st3" cx="308.5" cy="-147.7" r="7.5"/>
		<circle class="st3" cx="341.1" cy="-146.6" r="6.4"/>
		<path class="st4" d="M279.2-117.4v-22.8l15,22.8h3.4l7.9-22.8h6.4l9.4,24.4l17.6-24.4v22.1c0,0-12.4,10.9-13.1,16.9l-34.9-0.4
			C290.9-101.6,286.2-113.5,279.2-117.4z"/>
		<circle class="st5" cx="256.7" cy="-88.4" r="23.6"/>
		<ellipse class="st5" cx="360.4" cy="-87.3" rx="25.7" ry="22.5"/>
		<ellipse class="st6" cx="257.1" cy="-87.9" rx="15.4" ry="13.3"/>
		<circle class="st6" cx="360.8" cy="-87.9" r="13.3"/>
		<circle class="st7" cx="259" cy="-91.4" r="7.1"/>
		<circle class="st7" cx="362.3" cy="-92" r="7.7"/>
		<path class="st8" d="M214.4-46.8c0,0,91.4,47.7,187,0c0,0,5.3,15.3-26.6,37.8c0,0-59.9,32.6-131.8,0
			C243.1-8.9,219.4-22,214.4-46.8z"/>
		<path class="st9" d="M241.7,30.4l66.4,42.4l66-40.9l-42.4,66c0,0-6,4.9-22.7-7.5c0,0-8.1,11.6-21.6,8.4L241.7,30.4z"/>
		<path class="st10" d="M297.6,7.6c0,0-23.5,9.3-35.9,35.6l-19.9-12.7l-9-8.6l8.6-31.1C241.4-9.3,274,5.7,297.6,7.6z"/>
		<path class="st5" d="M303.6,117.8c0,0-4.1-10.5-13.9-11.3l-3-6.8h8.4l11.4-7.5h4.9l7.9,6l11.3,1.1l-2.3,5.6l-6.8,2.3l-7.5,10.5
			H303.6z"/>
	</g>
</g>
<g id="Layer_2">
	<g>
		<path class="st11" d="M35.4,41.4L38,64.6c0,0-4,1-9.3,3.8C14.9,75.6-8.2,94.5,3.1,137.8c0,0,7.9,21.4,26.3,32.3H19.1
			c0,0-3.2-9-12.2,0c0,0-5.6,11.6,16.5,9.4l42.4,0.3l-10.1,7.2l0.8,2.3h12v8.3v2.3l12.4-4.5l1.9,4.5l3.8,1.9l2.6-6.4l8.6-11.6l-3-3
			l34.9-0.8v3l8.6,18.8h2.6l2.3-6.8l11.6,4.5l1.9-2.6c0,0-0.4-6.8,0-6.8s13.5-0.4,13.5-0.4v-2.3l-11.6-7.5l55.1-0.4
			c0,0,8.3-7.9,0-12.8c0,0-6.1-1.9-9.1,3.8H194c0,0,34.1-19.1,30.7-59.1c0,0-3.7-39.1-38-45.8l2.8-42.5c0,0-8.4-34.9-46.4-18.3
			c0,0-12.7,11.8-10.1,21.7l-41.6,0.3c0,0-5.3-38.8-43.9-22.8C47.5,3.9,29.8,12.8,35.4,41.4z"/>
		<path class="st12" d="M29.2,70L32,99.2l5.6,26.4l8.2,28.7l6.8,16.9l3.7,8.4l9.6,0.1c0,0-24.6-44.2-27.7-115l-9.3,3.8L29.2,70z"/>
		<path class="st12" d="M196.3,68.5c0,0-12,93.1-25.9,107.2l4.5,3.9l-16.5,0.1c0,0,31.1-67.3,28.3-114.3L196.3,68.5z"/>
		<path class="st13" d="M203.9,98.4c0,0,5.3,13.2,2.8,30.1c0,0,7.3,5.9,6.5-6.3c0,0,2.8-19.8-3.1-26.3
			C210.1,95.9,203.6,87.1,203.9,98.4z"/>
		<path class="st12" d="M198.8,143.7c0,0-8.2,17.2,5.1,4.5C203.9,148.2,210.9,133,198.8,143.7z"/>
		<path class="st14" d="M61,65.5l102.7,1.4v-3.4l2.5-2.3h3.4l1.7,3.4l-2.5,5.9l-5.3,3.4H61c0,0-5.3-3.7-6.2-6.3v-4.4
			C54.8,63.2,56.2,57,61,65.5z"/>
		<path class="st15" d="M96.4,179.7c0,0-16.6-42.5-10.4-70c0,0,2.8-21.7,24.8-23.6c0,0,27.8-7.6,29.3,38.3c0,0-1.6,31.4-10.5,55.5
			L96.4,179.7z"/>
		<circle class="st14" cx="63.4" cy="29.4" r="21.2"/>
		<circle class="st12" cx="63.8" cy="28.6" r="16.6"/>
		<ellipse class="st14" cx="161" cy="30.5" rx="21" ry="20.1"/>
		<ellipse class="st12" cx="160.8" cy="29.5" rx="16.6" ry="15.8"/>
		<path class="st16" d="M54.8,26.4c0,0-10.1,4.8,0,6.5H72c0,0,8.4-2,0-6.5H54.8z"/>
		<path class="st16" d="M153.2,26.4c0,0-10.4,3.9,0,6.5h18c0,0,5.9-5.1,0-6.5H153.2z"/>
	</g>
</g>
<g id="Layer_3" class="st0">
	<g class="st1">
		<g>
			<path class="st17" d="M57.7,35c0,0-38.8,19.7-9.9,64.3l1.5,9.8c0,0-37.7-31.5-49.2-8.3c0,0-2.5,32.6,33.8,57.4l9.4,7.1h-6.8
				c0,0-11.3,7.9,0,10.5H74l-5.6,5.3l5.6,5.3l4.9-2.3v4.1h8.6v-3.8l4.5,3.8l5.6-7.5l-5.6-4.5c0,0,7.5-9.4,5.6-12.4
				c0,0,12,6,29.3,0.4c0,0,2.3,9,6,10.9l-5.3,5.6l5.3,5.6l4.5-1.9v3.8h8.6v-3.8l4.9,3.8l6-7.1l-6-5.6l37.5,0.4c0,0,13.5-4.1,0-9.4
				l-7.9-0.4c0,0,44.5-31.9,44.5-58.9s0-1.7,0-1.7s0.8-20.8-22.8-11.8l-25.5,15l1.1-11.6c0,0,20.6-24.4,2.6-49.9
				c0,0-1.5-6-13.1-12.2c0,0,0-28.7-28.1-25.7c0,0-17.3,1.9-20.3,18.4l-12.8,0.4c0,0-9.4-31.9-39-13.9C67.2,14.2,59,18,57.7,35z"/>
			<path class="st18" d="M11.4,114c0,0,24.4,45.4,56.3,52.1v-17.3c0,0-12.4-16.5-13.1-24c0,0-24.8-21-33.8-21.4
				C20.7,103.5,5.7,93.7,11.4,114z"/>
			<path class="st18" d="M47.4,70.5h130.5c0,0-2.3-23.3-20.6-31.1c0,0,2.6-24-18.8-20.3c0,0-10.1,0.4-12.8,18l-24.4,0.4l-4.5-3.4
				c0,0,0-17-17.6-15.4c0,0-13.1,2.3-11.6,20.6C67.6,39.4,44.7,52.9,47.4,70.5z"/>
			<path class="st17" d="M77.4,28.9c0,0-10.5,10.5,10.9,7.1C88.2,36,98.4,28.1,77.4,28.9z"/>
			<path class="st17" d="M137.4,28.8c0,0-12.9,8.1,9.8,7.8C147.1,36.7,158.7,27.6,137.4,28.8z"/>
			<path class="st19" d="M48.9,79.9c0,0,4.5,23.6,37.1,23.6h64.3c0,0,19.3-4.5,26.1-23.6H48.9z"/>
			<path class="st18" d="M171.9,124.1c0,0-7.5,19.1-15,22.5v19.5c0,0,37.9-11.6,55.5-50.3c0,0,10.9-22.9-10.9-12.4l-25.1,15.8
				L171.9,124.1z"/>
			<path class="st18" d="M59.4,108c0,0,2.6,24.4,18.4,34.9v16.5c0,0,4.5,21.4,10.1,0V150c0,0,6.8-9.3,8.3,3.8l10.1,3.4l21.8-2.3
				c0,0,5.3-16.5,8.3,0.4v7.5c0,0,7.5,13.9,11.6-0.8v-19.1c0,0,15.4-11.3,18.4-34.9l-9.4,3.8l-82.1,0.8L59.4,108z"/>
			<ellipse class="st17" cx="67.2" cy="188.4" rx="7.9" ry="6.6"/>
			<circle class="st17" cx="83.7" cy="195.4" r="6.9"/>
			<ellipse class="st17" cx="98.8" cy="187.7" rx="8.2" ry="7.7"/>
			<circle class="st17" cx="126" cy="187.7" r="7.7"/>
			<circle class="st17" cx="143.2" cy="195.3" r="7"/>
			<circle class="st17" cx="157.6" cy="188.6" r="6.8"/>
		</g>
		<g>
			<path d="M48.6,15.7c0,0,49.9,29.2,127.9,0c0,0,16.9-6.8,3.4-21c0,0-10.5-9.4-10.9-2.6c0,0,4.5,13.6-52.1,17.1
				c0,0-55.1,3.1-60.7-19.5c0,0-13.7-1.7-16.2,16.7C39.9,6.3,43.8,16.1,48.6,15.7z"/>
			<path d="M82.4-58.5L67-24c0,0-10.1,11.6,4.5,16.9c0,0,37.5,17.6,81,0c0,0,15-1.6,7.5-14.9c0,0,12.8-8,13.5-25.3v-9l-5.6,7.1
				l-1.5-4.5c0,0-13.5,11.6-13.9,21.4L151-10.4c0,0-7.1-17-2.6-35L140.1-66c0,0-3.4-10.9-15-1.9c0,0-9,12.8-22.5,2.3
				C102.6-65.7,89.9-85.5,82.4-58.5z"/>
		</g>
	</g>
</g>
<g id="Layer_1" class="st0">
	<g class="st1">
		<path class="st20" d="M72.9,55.4l29.1-0.8l11.1-21.9c0,0,1.1,17.3,1.8,16.9s14.8-8.3,14.8-8.3l1.3,17.2l14.5-9.1l1.3,16.2l15.6-9
			L151.2,80c0,0,10.8,13.1,9.1,15.5s0.7,0,0.7,0l9.4,1.1c0,0,28.5,8.1,20.3,33l-3.2,6.5c0,0-33.9-14.2-29.1,25.9c0,0,5.6,1.8,6,1.8
			s7.7,0,7.7,0s-3.4,14.6-21.8,12.1l-7.9-2.7c0,0-12.5,19.3-63.1,17.9c0,0-22.8,26.7-17.4-4.8L49.3,180c0,0-41.1,35.7-16-8.7
			c0,0-20.8-29.8-18.8-46.7c0,0-27,16.6-30.7,30.4c0,0-7.3,0-2-20.8c0,0,6.8-13.2,31.8-15.2c0,0-19.1-14.1-33.7-4.5L-23,117
			c0,0-0.8-4.9,7.3-11.6c0,0,16-17.4,31.5,1.7l3.1-8.7c0,0-9.3-13.2,1.4-25.9c0,0-10.4-17.2,10.1-34.9c0,0,2.8,16,18,26.7h4.1
			c0,0-5.2-16.9,9.7-26.4C62.2,37.9,69.5,53.4,72.9,55.4z"/>
		<path class="st21" d="M110.6,45.8l-5.9,11.3c0,0,19.7,26.2,40.8,22.5l9-13.5l-10.4,5.3l-1.1-16l-13.4,7.5l-3-17.1l-13.8,10.4
			L110.6,45.8z"/>
		<path class="st5" d="M28.2,44.4c0,0-25.9,22.8,27,57.9L34.7,88.8l-9.6-8.9l-3.2-3.7c0,0-8.6,11.8,1.5,21.1l16.3,11.3l22.8,6.8
			L29,105.1c0,0-7.9-8.7-5.1,4.2c0,0,5.3,22.5,39.7,19l15.5-1.8l4.1-2c0,0,3.5-15.2-3.5-23.3l-9.8-12.7L55.8,76.5L38.3,59.6
			c0,0-9-8.4-8.4-15.2H28.2z"/>
		<path class="st5" d="M61.4,44.4c0,0-7,1.5-6.5,18.5l14.6-5.8L61.4,44.4z"/>
		<path class="st22" d="M90.1,58.5c0,0-24.2-0.8-37.5,9.6c0,0,44.6,34.3,34.4,57.9c0,0-19.1,11.8-53.2,0c0,0-16-12.4-13.2-20.5
			l-2.8,8.2c0,0-2,49.8,36.1,64.7c0,0,32.8,25.9,85.4-6.5l-6.8-5.9l-1.7-20.5l3.7-17l4.8-17.9l9.8-14.1l6.8-2.3l-8.2-11.5
			c0,0-32.9,4.2-47-24.2L90.1,58.5z"/>
		<path class="st23" d="M40.3,168.1c0,0,52.3-20.8,92.7,7.3C132.9,175.5,87.8,207.5,40.3,168.1z"/>
		<path class="st21" d="M152.8,99c0,0-24.2,28.1-16.6,65.3l13.5,8.2h11.8l5.1-5.6l-20-6c0,0-9.8-9.2,9.3-25.1c0,0,14.9-9.1,29.3-3.2
			c0,0,10.8-14.7-4.5-25.6C180.6,106.8,173.6,97,152.8,99z"/>
		<path class="st24" d="M155.9,105.1l5.9,3.9c0,0,13.2,0.8,3.1-3.9H155.9z"/>
		<circle class="st25" cx="116.5" cy="101.6" r="21.7"/>
		<circle class="st5" cx="116.1" cy="103.1" r="17.9"/>
		<path class="st26" d="M116.1,100.4c0,0,0.7,16.7,13.4,8.8c0,0,7.7-8.2,0-13.8l-5-1.4C124.6,93.9,130.4,108.5,116.1,100.4z"/>
	</g>
</g>
<g id="Layer_4" class="st0">
	<g class="st1">
		<path class="st27" d="M81,64.5c0,0-97.9,79.3-111.4,83.8h19.7l-19.7,11.3h44.4l-5.1,18l36-7.9c0,0,73.7,30.4,112.5-22.5
			c0,0,16.9-15.2,12.9-63.6c0,0-7.3-12.4-2.3-19.1h15.2c0,0-7.3-15.8-11.3-15.8c0,0-1.7-30.9-34.3-35.4c0,0-30.9-2.8-42.2,37.7
			L81,64.5z"/>
		<path class="st28" d="M97.3,58.3L76.5,78c0,0,36.6-7.9,48.9,27.6c0,0,10.5,37.8-41.1,52.3l-31.5,7.9c0,0,31.5,23.6,78.2,0
			c0,0,43.3-25.9,33.8-77.6l-3.9-16.9l5.3-24.2c0,0-9.3-44.4-51.4-20.8c0,0-9,7.9-8.4,12.4L97.3,58.3z"/>
		<path class="st28" d="M63,89.2c0,0-46.1,73.2-46.1,79.9L76.5,155c0,0,32.9-12.9,33-15.2c0,0,31.7-31.5-6.6-54.6
			C103,85.3,87.8,72.3,63,89.2z"/>
		<polygon class="st28" points="52.9,95.8 -11.8,142.7 10.7,142.7 -7.8,155 16.9,155 		"/>
		<path class="st29" d="M82.7,176.2v11.3c0,0-12.9,16.9,2.8,6.8l9.6,3.2l3.4-2.7l-11.6-6l1.3-12.6H82.7z"/>
		<path class="st29" d="M109.6,173.3V189l-5.3,3.9l0.6,3.2l3,1.3l5.3-5.4l8.8,4.9c0,0,8.7,1.1,3-5.1l-9.4-4.9v-15.7L109.6,173.3z"/>
		<path class="st29" d="M159.5,63.8h22.9c0,0-2.7-11.3-12.8-14.9c0,0-6.5-4.9-9.1,3C160.5,51.8,148.7,58.8,159.5,63.8z"/>
		<circle class="st29" cx="134.2" cy="44.9" r="7.4"/>
	</g>
</g>
<g id="Layer_5" class="st0">
	<g class="st1">
		<path class="st30" d="M46,80.5l-5.6,10.7l-5,13.5l-9.6,7.6c0,0-18.3,9.8-34,47.5l-18.3,34c0,0-1.4,2.5,0,2.5s56.5,0,56.5,0
			l2.8,9.6c0,0-8.7,7.5,1.7,5.3c0,0,13.2-3.7,19.3,0.4c0,0,7.5-0.5,1.1-4c0,0-7.4-2.8-17.7-1.5l-3-10.5l12.5-0.6l0.1,4.2
			c0,0-6.9,4.6,1,3.7c0,0,9.7-2.8,19.7,0.3c0,0,7.5,1,2.4-3.2c0,0-3.9-2.3-19.4-1.8l-0.4-3.2c0,0,55.3-14.2,46.3-69.3l-4.2-11
			c0,0,11.5-21.4-1.1-34C91,80.5,71.9,57.2,46,80.5z"/>
		<path class="st31" d="M35.1,109.8c0,0,35.7-1.4,29.2,34.3c0,0-2.5,20.3-45.6,28.1l-32.1,7l-7.3,12.1h65.5c0,0,45.4-5.3,48.7-51.6
			c0,0,1.4-15.6-4.5-24.1c0,0,9-22.8,0.3-30.1c0,0-12.9-21.7-38.5-4.8L45.2,89l-2,7L35.1,109.8z"/>
		<path class="st30" d="M89.1,102.2c0,0-8.7,5.7,1.7,8.3h13.5c0,0-2.5-10-9.3-11.7C95,98.8,89.4,94.5,89.1,102.2z"/>
		<path class="st32" d="M14.2,126.7c0,0,25.8-0.3,41.2,30.6c0,0,17.2-23.7,0-38.2C55.4,119.1,34.4,98.8,14.2,126.7z"/>
		<path class="st33" d="M12.6,128.6l-18.3,30.7l-7.9,16.8l36.8-6.6l30.7-12.1C53.9,157.3,41.2,128.6,12.6,128.6z"/>
		<circle class="st30" cx="73.6" cy="92.3" r="6.8"/>
	</g>
</g>
</svg>
