<?xml version="1.0" encoding="utf-8"?>
<!-- Generator: Adobe Illustrator 23.0.0, SVG Export Plug-In . SVG Version: 6.00 Build 0)  -->
<svg version="1.1" xmlns="http://www.w3.org/2000/svg" xmlns:xlink="http://www.w3.org/1999/xlink" x="0px" y="0px"
	 viewBox="0 0 212.8 188.3" style="enable-background:new 0 0 212.8 188.3;" xml:space="preserve">
<style type="text/css">
	.st0{display:none;}
	.st1{display:inline;}
	.st2{fill:#81BA21;}
	.st3{fill:#F2BE52;}
	.st4{fill:#F39F34;}
	.st5{fill:#FFFFFF;}
	.st6{fill:#2C404F;}
	.st7{fill:#98A0AB;}
	.st8{fill:#67AB28;}
	.st9{fill:#568E21;}
	.st10{fill:#76B324;}
	.st11{fill:#91CA56;}
	.st12{fill:#5EAD2F;}
	.st13{fill:none;}
	.st14{fill:#6CB82F;}
	.st15{fill:#4E9125;}
	.st16{fill:#57575D;}
	.st17{fill:#643333;}
	.st18{fill:#6B983A;}
	.st19{fill:#9BCE57;}
	.st20{fill:#120931;}
	.st21{fill:#F1BA14;}
	.st22{fill:#2074AA;}
	.st23{fill:#F8F9F4;}
	.st24{fill:#1B2018;}
	.st25{fill:#252220;}
	.st26{fill:#161313;}
	.st27{fill:#4D7AB3;}
	.st28{fill:#89B6D1;}
	.st29{fill:#36414E;}
	.st30{fill:#21232B;}
	.st31{fill:#F29272;}
	.st32{fill:#F1BA7F;}
	.st33{fill:#EC5B6C;}
</style>
<g id="Layer_6" class="st0">
	<g class="st1">
		<path class="st2" d="M251.7-119.7c0,0-11,20.3-1.6,33.8c0,0-28.5,34.1,18.4,63.4l-8.6,31.1c0,0-23.6-5.3-21,15.7
			c0,0-0.8,7.1,12.4,18.8L294,89.9v3.4l-37.5-7.5c0,0-18.4-5.3-22.5,4.9l-15,15h234l-18.8-18.4c0,0,1.1-5.3-18.4-1.9l-38.3,7.1
			l55.1-62.6c0,0,6-27-21-22.1l-9.8-30c0,0,29.6-13.9,28.5-42.7c0,0-2.6-18-8.3-19.9c0,0,7.9-28.1-6-40.5c0,0-20.3-24.8-50.3-6
			c0,0-8.3,5.6-13.1,16.9l-34.9-0.4c0,0-8.5-30-47.8-20.6C270.3-135.4,255.5-129.7,251.7-119.7z"/>
		<ellipse class="st3" cx="303.6" cy="-160.9" rx="6.2" ry="7.5"/>
		<circle class="st3" cx="335.6" cy="-160.9" r="7.5"/>
		<circle class="st3" cx="368.3" cy="-159.8" r="6.4"/>
		<path class="st4" d="M306.4-130.6v-22.8l15,22.8h3.4l7.9-22.8h6.4l9.4,24.4l17.6-24.4v22.1c0,0-12.4,10.9-13.1,16.9l-34.9-0.4
			C318-114.8,313.3-126.8,306.4-130.6z"/>
		<circle class="st5" cx="283.9" cy="-101.7" r="23.6"/>
		<ellipse class="st5" cx="387.6" cy="-100.6" rx="25.7" ry="22.5"/>
		<ellipse class="st6" cx="284.3" cy="-101.1" rx="15.4" ry="13.3"/>
		<circle class="st6" cx="388" cy="-101.1" r="13.3"/>
		<circle class="st7" cx="286.1" cy="-104.7" r="7.1"/>
		<circle class="st7" cx="389.5" cy="-105.2" r="7.7"/>
		<path class="st8" d="M241.6-60c0,0,91.4,47.7,187,0c0,0,5.3,15.3-26.6,37.8c0,0-59.9,32.6-131.8,0C270.3-22.2,246.6-35.2,241.6-60
			z"/>
		<path class="st9" d="M268.9,17.2l66.4,42.4l66-40.9l-42.4,66c0,0-6,4.9-22.7-7.5c0,0-8.1,11.6-21.6,8.4L268.9,17.2z"/>
		<path class="st10" d="M324.8-5.7c0,0-23.5,9.3-35.9,35.6l-19.9-12.7l-9-8.6l8.6-31.1C268.5-22.6,301.1-7.6,324.8-5.7z"/>
		<path class="st5" d="M330.8,104.6c0,0-4.1-10.5-13.9-11.3l-3-6.8h8.4l11.4-7.5h4.9l7.9,6l11.3,1.1l-2.3,5.6l-6.8,2.3l-7.5,10.5
			H330.8z"/>
	</g>
</g>
<g id="Layer_2" class="st0">
	<g class="st1">
		<path class="st11" d="M4.2,280.1l2.6,23.3c0,0-4,1-9.3,3.8c-13.8,7.2-36.9,26.1-25.6,69.3c0,0,7.9,21.4,26.3,32.3h-10.3
			c0,0-3.2-9-12.2,0c0,0-5.6,11.6,16.5,9.4l42.4,0.3l-10.1,7.2l0.8,2.3h12v8.3v2.3l12.4-4.5l1.9,4.5l3.8,1.9l2.6-6.4l8.6-11.6l-3-3
			l34.9-0.8v3l8.6,18.8h2.6l2.3-6.8l11.6,4.5l1.9-2.6c0,0-0.4-6.8,0-6.8s13.5-0.4,13.5-0.4v-2.3l-11.6-7.5l55.1-0.4
			c0,0,8.3-7.9,0-12.8c0,0-6.1-1.9-9.1,3.8h-10.4c0,0,34.1-19.1,30.7-59.1c0,0-3.7-39.1-38-45.8l2.8-42.5c0,0-8.4-34.9-46.4-18.3
			c0,0-12.7,11.8-10.1,21.7l-41.6,0.3c0,0-5.3-38.8-43.9-22.8C16.3,242.6-1.4,251.5,4.2,280.1z"/>
		<path class="st12" d="M-2,308.7l2.8,29.3l5.6,26.4l8.2,28.7l6.8,16.9l3.7,8.4l9.6,0.1c0,0-24.6-44.2-27.7-115l-9.3,3.8L-2,308.7z"
			/>
		<path class="st12" d="M165.1,307.2c0,0-12,93.1-25.9,107.2l4.5,3.9l-16.5,0.1c0,0,31.1-67.3,28.3-114.3L165.1,307.2z"/>
		<path class="st13" d="M172.7,337.1c0,0,5.3,13.2,2.8,30.1c0,0,7.3,5.9,6.5-6.3c0,0,2.8-19.8-3.1-26.3
			C178.9,334.5,172.4,325.8,172.7,337.1z"/>
		<path class="st12" d="M167.6,382.3c0,0-8.2,17.2,5.1,4.5C172.7,386.8,179.7,371.7,167.6,382.3z"/>
		<path class="st14" d="M29.8,304.2l102.7,1.4v-3.4l2.5-2.3h3.4l1.7,3.4l-2.5,5.9l-5.3,3.4H29.8c0,0-5.3-3.7-6.2-6.3v-4.4
			C23.6,301.9,25,295.7,29.8,304.2z"/>
		<path class="st15" d="M65.3,418.4c0,0-16.6-42.5-10.4-70c0,0,2.8-21.7,24.8-23.6c0,0,27.8-7.6,29.3,38.3c0,0-1.6,31.4-10.5,55.5
			L65.3,418.4z"/>
		<circle class="st14" cx="32.3" cy="268" r="21.2"/>
		<circle class="st12" cx="32.6" cy="267.3" r="16.6"/>
		<ellipse class="st14" cx="129.8" cy="269.1" rx="21" ry="20.1"/>
		<ellipse class="st12" cx="129.6" cy="268.2" rx="16.6" ry="15.8"/>
		<path class="st16" d="M23.6,265.1c0,0-10.1,4.8,0,6.5h17.2c0,0,8.4-2,0-6.5H23.6z"/>
		<path class="st16" d="M122.1,265.1c0,0-10.4,3.9,0,6.5h18c0,0,5.9-5.1,0-6.5H122.1z"/>
	</g>
</g>
<g id="Layer_3" class="st0">
	<g class="st1">
		<g>
			<path class="st17" d="M299.8,260.1c0,0-38.8,19.7-9.9,64.3l1.5,9.8c0,0-37.7-31.5-49.2-8.3c0,0-2.5,32.6,33.8,57.4l9.4,7.1h-6.8
				c0,0-11.3,7.9,0,10.5h37.5l-5.6,5.3l5.6,5.3l4.9-2.3v4.1h8.6v-3.8l4.5,3.8l5.6-7.5l-5.6-4.5c0,0,7.5-9.4,5.6-12.4
				c0,0,12,6,29.3,0.4c0,0,2.3,9,6,10.9l-5.3,5.6l5.3,5.6l4.5-1.9v3.8h8.6v-3.8l4.9,3.8l6-7.1l-6-5.6l37.5,0.4c0,0,13.5-4.1,0-9.4
				l-7.9-0.4c0,0,44.5-31.9,44.5-58.9s0-1.7,0-1.7s0.8-20.8-22.8-11.8l-25.5,15l1.1-11.6c0,0,20.6-24.4,2.6-49.9
				c0,0-1.5-6-13.1-12.2c0,0,0-28.7-28.1-25.7c0,0-17.3,1.9-20.3,18.4l-12.8,0.4c0,0-9.4-31.9-39-13.9
				C309.3,239.3,301.1,243.1,299.8,260.1z"/>
			<path class="st18" d="M253.5,339.1c0,0,24.4,45.4,56.3,52.1v-17.3c0,0-12.4-16.5-13.1-24c0,0-24.8-21-33.8-21.4
				C262.8,328.6,247.8,318.8,253.5,339.1z"/>
			<path class="st18" d="M289.5,295.6H420c0,0-2.3-23.3-20.6-31.1c0,0,2.6-24-18.8-20.3c0,0-10.1,0.4-12.8,18l-24.4,0.4l-4.5-3.4
				c0,0,0-17-17.6-15.4c0,0-13.1,2.3-11.6,20.6C309.7,264.4,286.8,277.9,289.5,295.6z"/>
			<path class="st17" d="M319.5,253.9c0,0-10.5,10.5,10.9,7.1C330.3,261.1,340.5,253.2,319.5,253.9z"/>
			<path class="st17" d="M379.5,253.9c0,0-12.9,8.1,9.8,7.8C389.2,261.7,400.8,252.7,379.5,253.9z"/>
			<path class="st19" d="M291,304.9c0,0,4.5,23.6,37.1,23.6h64.3c0,0,19.3-4.5,26.1-23.6H291z"/>
			<path class="st18" d="M414,349.2c0,0-7.5,19.1-15,22.5v19.5c0,0,37.9-11.6,55.5-50.3c0,0,10.9-22.9-10.9-12.4l-25.1,15.8
				L414,349.2z"/>
			<path class="st18" d="M301.5,333.1c0,0,2.6,24.4,18.4,34.9v16.5c0,0,4.5,21.4,10.1,0v-9.4c0,0,6.8-9.3,8.3,3.8l10.1,3.4l21.8-2.3
				c0,0,5.3-16.5,8.3,0.4v7.5c0,0,7.5,13.9,11.6-0.8v-19.1c0,0,15.4-11.3,18.4-34.9l-9.4,3.8l-82.1,0.8L301.5,333.1z"/>
			<ellipse class="st17" cx="309.3" cy="413.5" rx="7.9" ry="6.6"/>
			<circle class="st17" cx="325.8" cy="420.4" r="6.9"/>
			<ellipse class="st17" cx="340.9" cy="412.8" rx="8.2" ry="7.7"/>
			<circle class="st17" cx="368.1" cy="412.8" r="7.7"/>
			<circle class="st17" cx="385.3" cy="420.3" r="7"/>
			<circle class="st17" cx="399.7" cy="413.7" r="6.8"/>
		</g>
		<g>
			<path d="M290.7,240.8c0,0,49.9,29.3,127.9,0c0,0,16.9-6.8,3.4-21c0,0-10.5-9.4-10.9-2.6c0,0,4.5,13.6-52.1,17.1
				c0,0-55.1,3.1-60.7-19.5c0,0-13.7-1.7-16.2,16.7C282,231.4,285.9,241.2,290.7,240.8z"/>
			<path d="M324.5,166.5L309.1,201c0,0-10.1,11.6,4.5,16.9c0,0,37.5,17.6,81,0c0,0,15-1.6,7.5-14.9c0,0,12.8-8,13.5-25.3v-9
				l-5.6,7.1l-1.5-4.5c0,0-13.5,11.6-13.9,21.4l-1.5,21.9c0,0-7.1-17-2.6-35l-8.3-20.6c0,0-3.4-10.9-15-1.9c0,0-9,12.8-22.5,2.3
				C344.7,159.4,332,139.5,324.5,166.5z"/>
		</g>
	</g>
</g>
<g id="Layer_1" class="st0">
	<g class="st1">
		<path class="st20" d="M55.1-109.4l29.1-0.8l11.1-21.9c0,0,1.1,17.3,1.8,16.9s14.8-8.3,14.8-8.3l1.3,17.2l14.5-9.1l1.3,16.2l15.6-9
			l-11.1,23.6c0,0,10.8,13.1,9.1,15.5s0.7,0,0.7,0l9.4,1.1c0,0,28.5,8.1,20.3,33l-3.2,6.5c0,0-33.9-14.2-29.1,25.9
			c0,0,5.6,1.8,6,1.8s7.7,0,7.7,0S151,13.5,132.6,11l-7.9-2.7c0,0-12.5,19.3-63.1,17.9c0,0-22.8,26.7-17.4-4.8l-12.7-6.2
			c0,0-41.1,35.7-16-8.7c0,0-20.8-29.8-18.8-46.7c0,0-27,16.6-30.7,30.4c0,0-7.3,0-2-20.8c0,0,6.7-13.2,31.8-15.2
			c0,0-19.1-14.1-33.7-4.5l-2.8,2.6c0,0-0.8-4.9,7.3-11.6c0,0,16-17.4,31.5,1.7l3.1-8.7c0,0-9.3-13.2,1.4-25.9
			c0,0-10.4-17.2,10.1-34.9c0,0,2.8,16,18,26.7h4.1c0,0-5.2-16.9,9.7-26.4C44.4-126.9,51.7-111.4,55.1-109.4z"/>
		<path class="st21" d="M92.8-119l-5.9,11.3c0,0,19.7,26.2,40.8,22.5l9-13.5l-10.4,5.3l-1.1-16l-13.4,7.5l-3-17.1l-13.8,10.4
			L92.8-119z"/>
		<path class="st5" d="M10.4-120.4c0,0-25.9,22.8,27,57.9L16.9-76l-9.6-8.9l-3.2-3.7c0,0-8.6,11.8,1.5,21.1l16.3,11.2l22.8,6.8
			L11.2-59.6c0,0-7.9-8.7-5.1,4.2c0,0,5.3,22.5,39.7,19l15.5-1.8l4.1-2c0,0,3.5-15.2-3.5-23.3L52-76.2L38-88.3l-17.4-16.9
			c0,0-9-8.4-8.4-15.2H10.4z"/>
		<path class="st5" d="M43.6-120.4c0,0-7,1.5-6.5,18.5l14.6-5.8L43.6-120.4z"/>
		<path class="st22" d="M72.3-106.3c0,0-24.2-0.8-37.5,9.6c0,0,44.6,34.3,34.4,57.9c0,0-19.1,11.8-53.2,0c0,0-16-12.4-13.2-20.5
			L0-51.2c0,0-2,49.8,36.1,64.7c0,0,32.8,25.9,85.4-6.5l-6.8-5.9l-1.7-20.5l3.7-17l4.8-17.9l9.8-14.1l6.8-2.3l-8.2-11.5
			c0,0-32.9,4.2-47-24.2L72.3-106.3z"/>
		<path class="st23" d="M22.5,3.4c0,0,52.3-20.8,92.7,7.3C115.2,10.7,70,42.7,22.5,3.4z"/>
		<path class="st21" d="M135-65.8c0,0-24.2,28.1-16.6,65.3l13.5,8.2h11.8l5.1-5.6l-20-6c0,0-9.8-9.2,9.3-25.1c0,0,14.9-9.1,29.3-3.2
			c0,0,10.8-14.7-4.5-25.6C162.8-58,155.8-67.8,135-65.8z"/>
		<path class="st24" d="M138.1-59.6l5.9,3.9c0,0,13.2,0.8,3.1-3.9H138.1z"/>
		<circle class="st25" cx="98.7" cy="-63.2" r="21.7"/>
		<circle class="st5" cx="98.3" cy="-61.7" r="17.9"/>
		<path class="st26" d="M98.3-64.4c0,0,0.7,16.7,13.4,8.8c0,0,7.7-8.2,0-13.8l-5-1.4C106.8-70.9,112.6-56.3,98.3-64.4z"/>
	</g>
</g>
<g id="Layer_4">
	<g>
		<path class="st27" d="M108.2,51.2c0,0-97.9,79.3-111.4,83.8h19.7l-19.7,11.3h44.4l-5.1,18l36-7.9c0,0,73.7,30.4,112.5-22.5
			c0,0,16.9-15.2,12.9-63.6c0,0-7.3-12.4-2.3-19.1h15.2c0,0-7.3-15.8-11.3-15.8c0,0-1.7-30.9-34.3-35.4c0,0-30.9-2.8-42.2,37.7
			L108.2,51.2z"/>
		<path class="st28" d="M124.5,45l-20.8,19.7c0,0,36.6-7.9,48.9,27.6c0,0,10.5,37.8-41.1,52.3l-31.5,7.9c0,0,31.5,23.6,78.2,0
			c0,0,43.3-25.9,33.8-77.6L188.1,58l5.3-24.2c0,0-9.3-44.4-51.4-20.8c0,0-9,7.9-8.4,12.4L124.5,45z"/>
		<path class="st28" d="M90.2,76c0,0-46.1,73.2-46.1,79.9l59.6-14.1c0,0,32.9-12.9,33-15.2c0,0,31.7-31.5-6.6-54.6
			C130.1,72,114.9,59.1,90.2,76z"/>
		<polygon class="st28" points="80.1,82.5 15.4,129.4 37.9,129.4 19.3,141.8 44.1,141.8 		"/>
		<path class="st29" d="M109.9,163v11.3c0,0-12.9,16.9,2.8,6.8l9.6,3.2l3.4-2.7l-11.6-6l1.3-12.6H109.9z"/>
		<path class="st29" d="M136.7,160v15.8l-5.3,3.9l0.6,3.2l3,1.3l5.3-5.4l8.8,4.9c0,0,8.7,1.1,3-5.1l-9.4-4.9V158L136.7,160z"/>
		<path class="st29" d="M186.7,50.5h22.9c0,0-2.7-11.3-12.8-14.9c0,0-6.5-4.9-9.1,3C187.7,38.6,175.8,45.6,186.7,50.5z"/>
		<circle class="st29" cx="161.4" cy="31.6" r="7.4"/>
	</g>
</g>
<g id="Layer_5" class="st0">
	<g class="st1">
		<path class="st30" d="M73.2,67.3L67.6,78l-5,13.5l-9.6,7.6c0,0-18.3,9.8-34,47.5l-18.3,34c0,0-1.4,2.5,0,2.5s56.5,0,56.5,0
			l2.8,9.6c0,0-8.7,7.5,1.7,5.3c0,0,13.2-3.7,19.3,0.4c0,0,7.5-0.5,1.1-4c0,0-7.4-2.8-17.7-1.5l-3-10.5l12.5-0.6L74,186
			c0,0-6.9,4.6,1,3.7c0,0,9.7-2.8,19.7,0.3c0,0,7.5,1,2.4-3.2c0,0-3.9-2.3-19.4-1.8l-0.4-3.2c0,0,55.3-14.2,46.3-69.3l-4.2-11
			c0,0,11.5-21.4-1.1-34C118.2,67.3,99.1,43.9,73.2,67.3z"/>
		<path class="st31" d="M62.3,96.5c0,0,35.7-1.4,29.2,34.3c0,0-2.5,20.3-45.6,28.1l-32.1,7l-7.3,12.1h65.5c0,0,45.4-5.3,48.7-51.6
			c0,0,1.4-15.6-4.5-24.1c0,0,9-22.8,0.3-30.1c0,0-12.9-21.7-38.5-4.8l-5.6,8.2l-2,7L62.3,96.5z"/>
		<path class="st30" d="M116.2,88.9c0,0-8.7,5.7,1.7,8.3h13.5c0,0-2.5-10-9.3-11.7C122.1,85.6,116.5,81.3,116.2,88.9z"/>
		<path class="st32" d="M41.4,113.4c0,0,25.8-0.3,41.2,30.6c0,0,17.2-23.7,0-38.2C82.6,105.8,61.6,85.5,41.4,113.4z"/>
		<path class="st33" d="M39.7,115.4L21.4,146l-7.9,16.8l36.8-6.6L81.1,144C81.1,144,68.4,115.4,39.7,115.4z"/>
		<circle class="st30" cx="100.8" cy="79.1" r="6.8"/>
	</g>
</g>
</svg>
