<?xml version="1.0" encoding="utf-8"?>
<!-- Generator: Adobe Illustrator 23.0.0, SVG Export Plug-In . SVG Version: 6.00 Build 0)  -->
<svg version="1.1" xmlns="http://www.w3.org/2000/svg" xmlns:xlink="http://www.w3.org/1999/xlink" x="0px" y="0px"
	 viewBox="0 0 234 278.3" style="enable-background:new 0 0 234 278.3;" xml:space="preserve">
<style type="text/css">
	.st0{fill:#81BA21;}
	.st1{fill:#F2BE52;}
	.st2{fill:#F39F34;}
	.st3{fill:#FFFFFF;}
	.st4{fill:#2C404F;}
	.st5{fill:#98A0AB;}
	.st6{fill:#67AB28;}
	.st7{fill:#568E21;}
	.st8{fill:#76B324;}
	.st9{display:none;}
	.st10{display:inline;}
	.st11{fill:#91CA56;}
	.st12{fill:#5EAD2F;}
	.st13{fill:none;}
	.st14{fill:#6CB82F;}
	.st15{fill:#4E9125;}
	.st16{fill:#57575D;}
	.st17{fill:#643333;}
	.st18{fill:#6B983A;}
	.st19{fill:#9BCE57;}
	.st20{fill:#120931;}
	.st21{fill:#F1BA14;}
	.st22{fill:#2074AA;}
	.st23{fill:#F8F9F4;}
	.st24{fill:#1B2018;}
	.st25{fill:#252220;}
	.st26{fill:#161313;}
	.st27{fill:#4D7AB3;}
	.st28{fill:#89B6D1;}
	.st29{fill:#36414E;}
	.st30{fill:#21232B;}
	.st31{fill:#F29272;}
	.st32{fill:#F1BA7F;}
	.st33{fill:#EC5B6C;}
</style>
<g id="Layer_6">
	<g>
		<path class="st0" d="M32.7,52.9c0,0-11,20.3-1.6,33.8c0,0-28.5,34.1,18.4,63.4l-8.6,31.1c0,0-23.6-5.3-21,15.8
			c0,0-0.8,7.1,12.4,18.8L75,262.6v3.4l-37.5-7.5c0,0-18.4-5.3-22.5,4.9l-15,15h234L215.3,260c0,0,1.1-5.3-18.4-1.9l-38.3,7.1
			l55.1-62.6c0,0,6-27-21-22.1l-9.8-30c0,0,29.6-13.9,28.5-42.8c0,0-2.6-18-8.3-19.9c0,0,7.9-28.1-6-40.5c0,0-20.3-24.8-50.3-6
			c0,0-8.3,5.6-13.1,16.9L99,57.8c0,0-8.5-30-47.8-20.6C51.3,37.2,36.5,42.9,32.7,52.9z"/>
		<ellipse class="st1" cx="84.6" cy="11.7" rx="6.2" ry="7.5"/>
		
			<ellipse transform="matrix(0.1621 -0.9868 0.9868 0.1621 86.1641 124.8985)" class="st1" cx="116.6" cy="11.7" rx="7.5" ry="7.5"/>
		<ellipse transform="matrix(0.123 -0.9924 0.9924 0.123 118.1997 159.38)" class="st1" cx="149.3" cy="12.8" rx="6.4" ry="6.4"/>
		<path class="st2" d="M87.4,42V19.2l15,22.8h3.4l7.9-22.8h6.4l9.4,24.4L147,19.2v22.1c0,0-12.4,10.9-13.1,16.9L99,57.8
			C99,57.8,94.3,45.9,87.4,42z"/>
		<circle class="st3" cx="64.9" cy="71" r="23.6"/>
		<ellipse class="st3" cx="168.6" cy="72.1" rx="25.7" ry="22.5"/>
		<ellipse class="st4" cx="65.3" cy="71.5" rx="15.4" ry="13.3"/>
		<circle class="st4" cx="169" cy="71.5" r="13.3"/>
		<circle class="st5" cx="67.1" cy="68" r="7.1"/>
		<path class="st5" d="M178.1,67.4c0,4.2-3.4,7.7-7.7,7.7c-4.2,0-7.7-3.4-7.7-7.7c0-4.2,3.4-7.7,7.7-7.7
			C174.7,59.8,178.1,63.2,178.1,67.4z"/>
		<path class="st6" d="M22.6,112.6c0,0,91.4,47.7,187,0c0,0,5.3,15.3-26.6,37.8c0,0-59.9,32.6-131.8,0
			C51.3,150.5,27.5,137.4,22.6,112.6z"/>
		<path class="st7" d="M49.9,189.8l66.4,42.4l66-40.9l-42.4,66c0,0-6,4.9-22.7-7.5c0,0-8.1,11.6-21.6,8.4L49.9,189.8z"/>
		<path class="st8" d="M105.8,167c0,0-23.5,9.3-35.9,35.6l-19.9-12.7l-9-8.6l8.6-31.1C49.5,150.1,82.1,165.1,105.8,167z"/>
		<path class="st3" d="M111.8,277.2c0,0-4.1-10.5-13.9-11.3l-3-6.8h8.4l11.4-7.5h4.9l7.9,6l11.3,1.1l-2.3,5.6l-6.8,2.3l-7.5,10.5
			H111.8z"/>
	</g>
</g>
<g id="Layer_2" class="st9">
	<g class="st10">
		<path class="st11" d="M26.5,306.8l2.6,23.3c0,0-4,1-9.3,3.8C6,341.1-17.1,360-5.7,403.2c0,0,7.9,21.4,26.3,32.3H10.2
			c0,0-3.2-9-12.2,0c0,0-5.6,11.6,16.5,9.4l42.4,0.3l-10.1,7.2l0.8,2.3h12v8.3v2.3l12.4-4.5l1.9,4.5l3.8,1.9l2.6-6.4l8.6-11.6l-3-3
			l34.9-0.8v3l8.6,18.8h2.6l2.3-6.8l11.6,4.5l1.9-2.6c0,0-0.4-6.8,0-6.8s13.5-0.4,13.5-0.4v-2.3l-11.6-7.5l55.1-0.4
			c0,0,8.3-7.9,0-12.8c0,0-6.1-1.9-9.1,3.8h-10.4c0,0,34.1-19.1,30.7-59.1c0,0-3.7-39.1-38-45.8l2.8-42.5c0,0-8.4-34.9-46.4-18.3
			c0,0-12.7,11.8-10.1,21.7l-41.6,0.3c0,0-5.3-38.8-43.9-22.8C38.6,269.3,20.9,278.2,26.5,306.8z"/>
		<path class="st12" d="M20.3,335.4l2.8,29.3l5.6,26.4l8.2,28.7l6.8,16.9l3.7,8.4l9.6,0.1c0,0-24.6-44.2-27.8-115l-9.3,3.8
			L20.3,335.4z"/>
		<path class="st12" d="M187.4,333.9c0,0-12,93.1-25.9,107.2l4.5,3.9l-16.5,0.1c0,0,31.1-67.3,28.3-114.3L187.4,333.9z"/>
		<path class="st13" d="M195,363.8c0,0,5.3,13.2,2.8,30.1c0,0,7.3,5.9,6.5-6.3c0,0,2.8-19.8-3.1-26.3
			C201.2,361.3,194.7,352.6,195,363.8z"/>
		<path class="st12" d="M189.9,409.1c0,0-8.2,17.2,5.1,4.5C195,413.6,202,398.4,189.9,409.1z"/>
		<path class="st14" d="M52.1,330.9l102.7,1.4V329l2.5-2.3h3.4l1.7,3.4l-2.5,5.9l-5.3,3.4H52.1c0,0-5.3-3.7-6.2-6.3v-4.4
			C45.9,328.7,47.3,322.5,52.1,330.9z"/>
		<path class="st15" d="M87.5,445.1c0,0-16.6-42.5-10.4-70c0,0,2.8-21.7,24.8-23.6c0,0,27.8-7.6,29.3,38.3c0,0-1.6,31.4-10.5,55.5
			L87.5,445.1z"/>
		<circle class="st14" cx="54.6" cy="294.8" r="21.2"/>
		<circle class="st12" cx="54.9" cy="294.1" r="16.6"/>
		<ellipse class="st14" cx="152.1" cy="295.9" rx="21" ry="20.1"/>
		<ellipse class="st12" cx="151.9" cy="294.9" rx="16.6" ry="15.8"/>
		<path class="st16" d="M45.9,291.8c0,0-10.1,4.8,0,6.5h17.2c0,0,8.4-2,0-6.5H45.9z"/>
		<path class="st16" d="M144.4,291.8c0,0-10.4,3.9,0,6.5h18c0,0,5.9-5.1,0-6.5H144.4z"/>
	</g>
</g>
<g id="Layer_3" class="st9">
	<g class="st10">
		<g>
			<path class="st17" d="M322.1,286.9c0,0-38.8,19.7-9.9,64.3l1.5,9.8c0,0-37.7-31.5-49.2-8.3c0,0-2.5,32.6,33.8,57.4l9.4,7.1h-6.8
				c0,0-11.3,7.9,0,10.5h37.5l-5.6,5.3l5.6,5.3l4.9-2.3v4.1h8.6v-3.8l4.5,3.8l5.6-7.5l-5.6-4.5c0,0,7.5-9.4,5.6-12.4
				c0,0,12,6,29.3,0.4c0,0,2.3,9,6,10.9l-5.3,5.6l5.3,5.6l4.5-1.9v3.8h8.6v-3.8l4.9,3.8l6-7.1l-6-5.6l37.5,0.4c0,0,13.5-4.1,0-9.4
				l-7.9-0.4c0,0,44.5-31.9,44.5-58.9s0-1.7,0-1.7s0.8-20.8-22.8-11.8l-25.5,15l1.1-11.6c0,0,20.6-24.4,2.6-49.9
				c0,0-1.5-6-13.1-12.2c0,0,0-28.7-28.1-25.7c0,0-17.3,1.9-20.3,18.4l-12.8,0.4c0,0-9.4-31.9-39-13.9
				C331.6,266.1,323.4,269.8,322.1,286.9z"/>
			<path class="st18" d="M275.8,365.8c0,0,24.4,45.4,56.3,52.1v-17.3c0,0-12.4-16.5-13.1-24c0,0-24.8-21-33.8-21.4
				C285.1,355.3,270.1,345.6,275.8,365.8z"/>
			<path class="st18" d="M311.8,322.3h130.5c0,0-2.3-23.3-20.6-31.1c0,0,2.6-24-18.8-20.3c0,0-10.1,0.4-12.8,18l-24.4,0.4l-4.5-3.4
				c0,0,0-17-17.6-15.4c0,0-13.1,2.3-11.6,20.6C332,291.2,309.1,304.7,311.8,322.3z"/>
			<path class="st17" d="M341.8,280.7c0,0-10.5,10.5,10.9,7.1C352.6,287.8,362.8,280,341.8,280.7z"/>
			<path class="st17" d="M401.8,280.7c0,0-12.9,8.1,9.8,7.8C411.5,288.5,423.1,279.5,401.8,280.7z"/>
			<path class="st19" d="M313.3,331.7c0,0,4.5,23.6,37.1,23.6h64.3c0,0,19.3-4.5,26.1-23.6H313.3z"/>
			<path class="st18" d="M436.3,376c0,0-7.5,19.1-15,22.5V418c0,0,37.9-11.6,55.5-50.3c0,0,10.9-22.9-10.9-12.4l-25.1,15.8
				L436.3,376z"/>
			<path class="st18" d="M323.8,359.8c0,0,2.6,24.4,18.4,34.9v16.5c0,0,4.5,21.4,10.1,0v-9.4c0,0,6.8-9.3,8.3,3.8l10.1,3.4l21.8-2.3
				c0,0,5.3-16.5,8.3,0.4v7.5c0,0,7.5,13.9,11.6-0.8v-19.1c0,0,15.4-11.3,18.4-34.9l-9.4,3.8l-82.1,0.8L323.8,359.8z"/>
			<ellipse class="st17" cx="331.6" cy="440.3" rx="7.9" ry="6.6"/>
			<circle class="st17" cx="348.1" cy="447.2" r="6.9"/>
			<ellipse class="st17" cx="363.2" cy="439.5" rx="8.2" ry="7.7"/>
			<circle class="st17" cx="390.4" cy="439.6" r="7.7"/>
			<path class="st17" d="M400.6,447.1c0-3.9,3.1-7,7-7c3.9,0,7,3.1,7,7s-3.1,7-7,7C403.7,454.1,400.6,451,400.6,447.1z"/>
			<circle class="st17" cx="422" cy="440.5" r="6.8"/>
		</g>
		<g>
			<path d="M313,267.6c0,0,49.9,29.3,127.9,0c0,0,16.9-6.8,3.4-21c0,0-10.5-9.4-10.9-2.6c0,0,4.5,13.6-52.1,17.1
				c0,0-55.1,3.1-60.7-19.5c0,0-13.7-1.7-16.2,16.7C304.3,258.2,308.1,267.9,313,267.6z"/>
			<path d="M346.8,193.3l-15.4,34.5c0,0-10.1,11.6,4.5,16.9c0,0,37.5,17.6,81,0c0,0,15-1.6,7.5-14.9c0,0,12.8-8,13.5-25.3v-9
				l-5.6,7.1l-1.5-4.5c0,0-13.5,11.6-13.9,21.4l-1.5,21.9c0,0-7.1-17-2.6-35l-8.3-20.6c0,0-3.4-10.9-15-1.9c0,0-9,12.8-22.5,2.3
				C367,186.2,354.3,166.3,346.8,193.3z"/>
		</g>
	</g>
</g>
<g id="Layer_1" class="st9">
	<g class="st10">
		<path class="st20" d="M77.4-82.7l29.1-0.8l11.1-21.9c0,0,1.1,17.3,1.8,16.9c0.7-0.4,14.8-8.3,14.8-8.3l1.3,17.2l14.5-9.1l1.3,16.2
			l15.6-9L155.7-58c0,0,10.8,13.1,9.1,15.5c-1.7,2.4,0.7,0,0.7,0l9.4,1.1c0,0,28.5,8.1,20.3,33L192-2.1c0,0-33.9-14.2-29.1,25.9
			c0,0,5.6,1.8,6,1.8c0.4,0,7.7,0,7.7,0s-3.4,14.6-21.8,12.1L147,35c0,0-12.5,19.3-63.1,17.9c0,0-22.8,26.7-17.4-4.8l-12.7-6.2
			c0,0-41.1,35.7-16-8.7c0,0-20.8-29.8-18.8-46.7c0,0-27,16.6-30.7,30.4c0,0-7.3,0-2-20.8c0,0,6.7-13.2,31.8-15.2
			c0,0-19.1-14.1-33.7-4.5l-2.8,2.6c0,0-0.8-4.9,7.3-11.6c0,0,16-17.4,31.5,1.7l3.1-8.7c0,0-9.3-13.2,1.4-25.9
			c0,0-10.4-17.2,10.1-34.9c0,0,2.8,16,18,26.7H57c0,0-5.2-16.9,9.7-26.4C66.7-100.1,74-84.6,77.4-82.7z"/>
		<path class="st21" d="M115.1-92.2L109.2-81c0,0,19.7,26.2,40.8,22.5l9-13.5l-10.4,5.3l-1.1-16l-13.4,7.5l-3-17.1l-13.8,10.4
			L115.1-92.2z"/>
		<path class="st3" d="M32.7-93.6c0,0-25.9,22.8,27,57.9L39.2-49.2l-9.6-8.9l-3.2-3.7c0,0-8.6,11.8,1.5,21.1l16.3,11.2L67-22.7
			L33.5-32.9c0,0-7.9-8.7-5.1,4.2c0,0,5.3,22.5,39.7,19l15.5-1.8l4.1-2c0,0,3.5-15.2-3.5-23.3l-9.8-12.7L60.2-61.6L42.8-78.4
			c0,0-9-8.4-8.4-15.2H32.7z"/>
		<path class="st3" d="M65.9-93.6c0,0-7,1.5-6.5,18.5L74-81L65.9-93.6z"/>
		<path class="st22" d="M94.6-79.6c0,0-24.2-0.8-37.5,9.6c0,0,44.6,34.3,34.4,57.9c0,0-19.1,11.8-53.2,0c0,0-16-12.4-13.2-20.5
			l-2.8,8.2c0,0-2,49.8,36.1,64.7c0,0,32.8,25.9,85.4-6.5l-6.8-5.9l-1.7-20.5l3.7-17l4.8-17.9l9.8-14.1l6.8-2.3l-8.2-11.5
			c0,0-32.9,4.2-47-24.2L94.6-79.6z"/>
		<path class="st23" d="M44.8,30.1c0,0,52.3-20.8,92.7,7.3C137.4,37.5,92.3,69.5,44.8,30.1z"/>
		<path class="st21" d="M157.3-39.1c0,0-24.2,28.1-16.6,65.3l13.5,8.2H166l5.1-5.6l-20-6c0,0-9.8-9.2,9.3-25.1
			c0,0,14.9-9.1,29.3-3.2c0,0,10.8-14.7-4.5-25.6C185.1-31.2,178.1-41,157.3-39.1z"/>
		<path class="st24" d="M160.4-32.9l5.9,3.9c0,0,13.2,0.8,3.1-3.9H160.4z"/>
		<circle class="st25" cx="121" cy="-36.4" r="21.7"/>
		
			<ellipse transform="matrix(0.2315 -0.9728 0.9728 0.2315 126.6808 90.506)" class="st3" cx="120.6" cy="-34.9" rx="17.9" ry="17.9"/>
		<path class="st26" d="M120.6-37.7c0,0,0.7,16.7,13.4,8.8c0,0,7.7-8.2,0-13.8l-5-1.4C129.1-44.1,134.9-29.5,120.6-37.7z"/>
	</g>
</g>
<g id="Layer_4" class="st9">
	<g class="st10">
		<path class="st27" d="M-181,275.1c0,0-97.9,79.3-111.4,83.8h19.7l-19.7,11.3h44.4l-5.1,18l36-7.9c0,0,73.7,30.4,112.5-22.5
			c0,0,16.9-15.2,12.9-63.6c0,0-7.3-12.4-2.3-19.1h15.2c0,0-7.3-15.8-11.3-15.8c0,0-1.7-30.9-34.3-35.4c0,0-30.9-2.8-42.2,37.7
			L-181,275.1z"/>
		<path class="st28" d="M-164.7,268.9l-20.8,19.7c0,0,36.6-7.9,48.9,27.6c0,0,10.5,37.8-41.1,52.3l-31.5,7.9c0,0,31.5,23.6,78.2,0
			c0,0,43.3-25.9,33.8-77.6l-3.9-16.9l5.3-24.2c0,0-9.3-44.4-51.4-20.8c0,0-9,7.9-8.4,12.4L-164.7,268.9z"/>
		<path class="st28" d="M-199,299.9c0,0-46.1,73.2-46.1,79.9l59.6-14.1c0,0,32.9-12.9,33-15.2c0,0,31.7-31.5-6.6-54.6
			C-159.1,295.9-174.3,283-199,299.9z"/>
		<polygon class="st28" points="-209.2,306.4 -273.8,353.3 -251.3,353.3 -269.9,365.7 -245.2,365.7 		"/>
		<path class="st29" d="M-179.3,386.9v11.3c0,0-12.9,16.9,2.8,6.8l9.6,3.2l3.4-2.7l-11.6-6l1.3-12.6H-179.3z"/>
		<path class="st29" d="M-152.5,383.9v15.8l-5.3,3.9l0.6,3.2l3,1.3l5.3-5.4l8.8,4.9c0,0,8.7,1.1,3-5.1l-9.4-4.9v-15.7L-152.5,383.9z
			"/>
		<path class="st29" d="M-102.6,274.4h22.9c0,0-2.7-11.3-12.8-14.9c0,0-6.5-4.9-9.1,3C-101.6,262.5-113.4,269.5-102.6,274.4z"/>
		<circle class="st29" cx="-127.9" cy="255.5" r="7.4"/>
	</g>
</g>
<g id="Layer_5" class="st9">
	<g class="st10">
		<path class="st30" d="M-197.3-62.9l-5.6,10.7l-5,13.5l-9.6,7.6c0,0-18.3,9.8-34,47.5l-18.3,34c0,0-1.4,2.5,0,2.5
			c1.4,0,56.5,0,56.5,0l2.8,9.6c0,0-8.7,7.5,1.7,5.3c0,0,13.2-3.7,19.3,0.4c0,0,7.5-0.5,1.1-4c0,0-7.4-2.8-17.7-1.5l-3-10.5
			l12.5-0.6l0.1,4.2c0,0-6.9,4.6,1,3.7c0,0,9.7-2.8,19.7,0.3c0,0,7.5,1,2.4-3.2c0,0-3.9-2.3-19.4-1.8l-0.4-3.2
			c0,0,55.3-14.2,46.3-69.3l-4.2-11c0,0,11.5-21.4-1.1-34C-152.3-62.9-171.4-86.2-197.3-62.9z"/>
		<path class="st31" d="M-208.2-33.6c0,0,35.7-1.4,29.2,34.3c0,0-2.5,20.3-45.6,28.1l-32.1,7l-7.3,12.1h65.5c0,0,45.4-5.3,48.7-51.6
			c0,0,1.4-15.6-4.5-24.1c0,0,9-22.8,0.3-30.1c0,0-12.9-21.7-38.5-4.8l-5.6,8.2l-2,7L-208.2-33.6z"/>
		<path class="st30" d="M-154.3-41.2c0,0-8.7,5.7,1.7,8.3h13.5c0,0-2.5-10-9.3-11.7C-148.4-44.6-154-48.9-154.3-41.2z"/>
		<path class="st32" d="M-229.1-16.8c0,0,25.8-0.3,41.2,30.6c0,0,17.2-23.7,0-38.2C-187.9-24.3-208.9-44.6-229.1-16.8z"/>
		<path class="st33" d="M-230.8-14.8l-18.3,30.7l-7.9,16.8l36.8-6.6l30.7-12.1C-189.4,13.9-202.1-14.8-230.8-14.8z"/>
		<circle class="st30" cx="-169.7" cy="-51.1" r="6.8"/>
	</g>
</g>
</svg>
